# xmcd
#
# Track frame offsets: 
#        150
#        14164
#        30933
#        53444
#        59879
#        79069
#        99312
#        111779
#        133686
#        151077
#        168443
#        190329
#        213699
#        233996
#        254980
#        276158
#        292651
#
# Disc length: 4126 seconds
#
# Revision: 1
# Processed by: cddbd v1.5.1PL2 Copyright (c) Steve Scherf et al.
# Submitted via: ExactAudioCopy v0.95b3
#
DISCID=f3101c11
DTITLE=Willie Clayton - Changing Tha Game
DYEAR=2004
DGENRE=Blues
TTITLE0=Fact, No Rumor
TTITLE1=Love Mechanic
TTITLE2=Whipped
TTITLE3=Come On Over
TTITLE4=I Want You
TTITLE5=I Wanna Get It On
TTITLE6=Take 'um Off
TTITLE7=Love Zone
TTITLE8=So In Love
TTITLE9=Keep Steppin'
TTITLE10=Woman's World
TTITLE11=What Cha' Do To Me
TTITLE12=Monkey See, Monkey Do
TTITLE13=Unconditionally
TTITLE14=A Thang 4 You
TTITLE15=My Mama Song
TTITLE16=Monkey See Monkey Do Remix
EXTD=
EXTT0=
EXTT1=
EXTT2=
EXTT3=
EXTT4=
EXTT5=
EXTT6=
EXTT7=
EXTT8=
EXTT9=
EXTT10=
EXTT11=
EXTT12=
EXTT13=
EXTT14=
EXTT15=
EXTT16=
PLAYORDER=
